HIERARCHY
ROOT root
{
	OFFSET 0.000000 0.000000 0.000000
	CHANNELS 6 Xposition Yposition Zposition Zrotation Yrotation Xrotation
	JOINT lhip
	{
		OFFSET 0.058581 -0.082280 -0.017664
		CHANNELS 3 Zrotation Yrotation Xrotation
		JOINT lknee
		{
			OFFSET 0.043451 -0.386469 0.008037
			CHANNELS 3 Zrotation Yrotation Xrotation
			JOINT lankle
			{
				OFFSET -0.014790 -0.426874 -0.037428
				CHANNELS 3 Zrotation Yrotation Xrotation
				JOINT ltoe
				{
					OFFSET 0.041054 -0.060286 0.122042
					CHANNELS 3 Zrotation Yrotation Xrotation
					End Site
					{
						OFFSET 0.000000 0.000000 0.000000
					}
				}
			}
		}
	}
	JOINT rhip
	{
		OFFSET -0.060310 -0.090513 -0.013543
		CHANNELS 3 Zrotation Yrotation Xrotation
		JOINT rknee
		{
			OFFSET -0.043257 -0.383688 -0.004843
			CHANNELS 3 Zrotation Yrotation Xrotation
			JOINT rankle
			{
				OFFSET 0.019056 -0.420046 -0.034562
				CHANNELS 3 Zrotation Yrotation Xrotation
				JOINT rtoe
				{
					OFFSET -0.034840 -0.062106 0.130323
					CHANNELS 3 Zrotation Yrotation Xrotation
					End Site
					{
						OFFSET 0.000000 0.000000 0.000000
					}
				}
			}
		}
	}
	JOINT lowerback
	{
		OFFSET 0.004439 0.124404 -0.038385
		CHANNELS 3 Zrotation Yrotation Xrotation
		JOINT upperback
		{
			OFFSET 0.004488 0.137956 0.026820
			CHANNELS 3 Zrotation Yrotation Xrotation
			JOINT chest
			{
				OFFSET -0.002265 0.056032 0.002855
				CHANNELS 3 Zrotation Yrotation Xrotation
				JOINT lowerneck
				{
					OFFSET -0.013390 0.211636 -0.033468
					CHANNELS 3 Zrotation Yrotation Xrotation
					JOINT upperneck
					{
						OFFSET 0.010113 0.088937 0.050410
						CHANNELS 3 Zrotation Yrotation Xrotation
						End Site
						{
							OFFSET 0.000000 0.000000 0.000000
						}
					}
				}
				JOINT lclavicle
				{
					OFFSET 0.071702 0.114000 -0.018898
					CHANNELS 3 Zrotation Yrotation Xrotation
					JOINT lshoulder
					{
						OFFSET 0.122921 0.045205 -0.019046
						CHANNELS 3 Zrotation Yrotation Xrotation
						JOINT lelbow
						{
							OFFSET 0.255332 -0.015649 -0.022946
							CHANNELS 3 Zrotation Yrotation Xrotation
							JOINT lwrist
							{
								OFFSET 0.265709 0.012698 -0.007375
								CHANNELS 3 Zrotation Yrotation Xrotation
								End Site
								{
									OFFSET 0.000000 0.000000 0.000000
								}
							}
						}
					}
				}
				JOINT rclavicle
				{
					OFFSET -0.082954 0.112472 -0.023707
					CHANNELS 3 Zrotation Yrotation Xrotation
					JOINT rshoulder
					{
						OFFSET -0.113228 0.046853 -0.008472
						CHANNELS 3 Zrotation Yrotation Xrotation
						JOINT relbow
						{
							OFFSET -0.260127 -0.014369 -0.031269
							CHANNELS 3 Zrotation Yrotation Xrotation
							JOINT rwrist
							{
								OFFSET -0.269108 0.006794 -0.006027
								CHANNELS 3 Zrotation Yrotation Xrotation
								End Site
								{
									OFFSET 0.000000 0.000000 0.000000
								}
							}
						}
					}
				}
			}
		}
	}
}
MOTION
Frames: 13
Frame Time: 0.033333
0.134375 0.402080 0.512614 -97.448316 -1.372552 143.184628 24.333984 3.052261 -77.302073 -5.725891 20.423024 128.311614 4.007490 8.673436 -37.495970 0.000000 -0.000000 0.000000 -1.899807 8.212204 -27.343370 4.668147 1.038796 103.857890 4.159976 -18.931105 0.409612 0.000000 -0.000000 0.000000 -11.076400 6.244226 44.776679 0.730710 -6.762802 -17.064541 -2.777308 3.737219 -0.197922 -0.909919 -0.588852 -13.806026 9.214648 -3.396417 15.826602 -10.384084 -20.994360 -5.534515 -29.776728 -11.408626 7.951848 2.274918 -66.076280 24.306702 70.986003 -17.095695 2.954886 13.039423 26.817130 -5.534201 53.575246 26.210123 15.139960 -46.695656 46.518224 -16.729204 -58.455379 12.575503 25.564765 
0.111895 0.399844 0.504518 -99.131155 0.203312 143.374858 23.923696 1.312135 -74.832170 -5.413066 20.343110 127.364100 3.956767 9.020556 -36.781987 0.000000 -0.000000 0.000000 -1.727658 7.866302 -25.290407 3.926387 2.253643 103.481087 3.756725 -19.347642 -2.537273 0.000000 -0.000000 0.000000 -11.101884 6.459527 42.861223 0.117465 -6.524755 -16.514214 -3.349232 3.808649 -0.188658 -0.156070 0.546993 -15.195921 8.664998 -3.489727 15.862535 -12.059386 -18.927235 -4.404471 -28.802080 -9.502657 7.577858 0.730494 -69.033527 24.951610 68.928224 -17.879301 2.081422 14.969402 26.677431 -4.575628 55.984216 26.271462 17.261888 -44.702711 45.290476 -15.393946 -59.856196 14.115512 26.662423 
0.090081 0.395161 0.495609 -100.316109 2.101081 143.945833 23.285679 -0.298256 -71.855652 -4.315416 20.114431 127.845910 3.389245 10.231853 -36.843111 0.000000 -0.000000 0.000000 -1.480411 7.718953 -23.667759 3.218840 3.015813 103.622670 4.031541 -19.736741 -7.150178 0.000000 -0.000000 0.000000 -10.856010 5.695314 41.322557 -0.311381 -6.186054 -16.614978 -3.964027 3.777796 0.347944 1.029478 2.051959 -17.804438 7.495129 -3.568382 17.234282 -13.923634 -15.704296 -3.798188 -26.499489 -8.399549 6.227360 6.208659 -75.187364 19.945399 70.685964 -20.729418 0.981295 17.115625 26.041859 -4.256297 58.138181 26.574373 19.971535 -42.169529 44.619832 -13.071837 -61.440997 16.566095 26.859415 
0.071418 0.389195 0.489079 -100.522360 3.236377 145.496964 23.191151 -0.516272 -71.998690 -2.267363 20.242730 128.315930 2.843206 10.131894 -37.518519 0.000000 -0.000000 0.000000 -1.586286 7.391975 -23.464267 2.520118 3.305407 104.164941 4.211337 -20.025526 -12.329522 0.000000 -0.000000 0.000000 -10.537566 4.782839 40.336031 -0.023713 -6.253137 -17.803623 -3.690467 3.490496 1.000920 1.532316 2.730361 -19.285588 6.734080 -3.427883 18.546760 -14.182736 -13.480493 -4.180848 -24.593885 -9.370951 3.552014 30.365617 -80.186545 -2.455571 72.511271 -24.138777 0.564902 17.994289 25.301110 -4.138284 59.363890 26.147341 21.386391 -39.587677 45.052095 -10.440078 -62.710595 18.584774 26.296614 
0.054695 0.386587 0.488364 -100.351304 2.771806 146.945037 22.764678 -0.927660 -72.474702 -1.566756 21.402907 128.369047 2.610891 9.940170 -37.759443 0.000000 -0.000000 0.000000 -2.353185 6.503167 -23.513704 1.725518 3.201720 104.574962 3.284870 -21.127616 -14.958743 0.000000 -0.000000 0.000000 -11.387741 5.225961 40.529087 1.347489 -7.374817 -19.011642 -2.389935 2.988386 1.163862 1.124715 3.290611 -19.511189 6.951952 -3.833027 19.004527 -12.446203 -13.818668 -5.681645 -21.671377 -12.514899 0.090189 66.624712 -79.206784 -40.011282 73.451961 -23.906879 0.196753 19.414173 24.930532 -3.611592 58.368941 24.728406 21.725995 -38.589622 46.466913 -9.199373 -63.138982 18.895023 26.334717 
0.038679 0.382612 0.491595 -99.953159 2.398021 147.761727 20.973350 -1.815532 -71.582878 -2.346207 21.226523 127.279539 2.291949 10.443101 -38.234834 0.000000 -0.000000 0.000000 -3.529917 5.253103 -23.973081 1.182714 3.010375 104.949704 2.806307 -21.678189 -17.880952 0.000000 -0.000000 0.000000 -11.358322 5.676410 41.327245 2.415958 -8.472642 -19.642716 -1.457160 2.584661 0.873233 0.105932 4.261352 -18.516579 7.355208 -4.319461 17.054093 -9.372101 -16.378984 -7.720054 -16.834065 -15.660151 -4.119112 76.648105 -73.988366 -54.222892 71.439874 -18.853773 0.438565 20.630872 24.856621 -3.434711 57.409627 22.950057 21.753169 -38.226868 47.548475 -8.172641 -62.889979 17.686488 27.103888 
0.024585 0.375082 0.496877 -99.045834 3.529987 148.782115 20.133211 -2.238343 -70.848194 -3.480256 19.881344 125.047669 2.231816 11.580654 -38.146873 0.000000 -0.000000 0.000000 -4.241929 4.924629 -26.853375 1.611178 2.304908 106.037805 3.269961 -21.445223 -21.113368 0.000000 -0.000000 0.000000 -9.902934 5.387760 41.586282 3.014803 -8.325501 -19.991985 -0.958685 2.545085 0.507123 -1.384220 5.481511 -16.792246 7.800147 -4.721490 13.871707 -5.013451 -18.972937 -9.859844 -11.936901 -17.847643 -7.868910 67.744461 -68.677004 -50.660238 67.301368 -11.658438 0.738688 20.272050 24.876259 -3.307215 56.927852 21.800767 21.651290 -37.618360 47.566092 -6.611004 -62.314748 15.536999 28.247510 
0.010965 0.367456 0.503699 -98.155688 5.113107 149.719151 19.928523 -2.755694 -70.074382 -4.598415 18.410735 122.077826 2.498126 13.174825 -37.672779 0.000000 -0.000000 0.000000 -4.748386 4.600708 -31.088262 2.633389 1.585504 107.538696 3.699862 -21.205834 -23.198839 0.000000 -0.000000 0.000000 -8.975357 5.560719 41.956061 4.016666 -7.763391 -20.752868 0.104075 2.660811 0.432318 -2.684947 6.995386 -15.189402 7.720615 -5.442241 11.394762 -0.578035 -20.149319 -12.185120 -8.534956 -19.114957 -9.533462 53.833795 -64.013588 -41.694764 63.266759 -6.225117 -0.349969 19.863925 24.813423 -2.815214 55.679589 21.329923 21.671507 -36.945081 46.848505 -5.808930 -61.840291 13.465735 28.721293 
-0.003084 0.358208 0.510288 -97.665729 6.521212 150.391556 19.251650 -3.712258 -69.139062 -5.566154 17.429881 119.369454 2.737788 14.461676 -37.051458 0.000000 -0.000000 0.000000 -6.014377 3.713224 -35.938903 3.765255 0.880847 109.307818 4.435205 -20.320964 -25.171213 0.000000 -0.000000 0.000000 -8.215331 5.884390 42.479104 4.898013 -7.143235 -21.579671 0.835536 2.733372 0.539498 -3.444517 8.608563 -14.199868 6.991005 -6.638995 10.231652 2.612201 -20.188474 -13.805071 -6.359671 -20.001868 -9.419104 42.942380 -60.961008 -33.263833 60.007156 -3.407560 -1.842056 20.177466 24.491367 -2.356118 53.839290 21.317103 21.706940 -35.747957 45.600830 -4.759069 -61.610653 12.141708 28.539281 
-0.018425 0.346823 0.515184 -97.148912 7.823912 150.513742 17.501372 -4.854802 -67.516565 -5.964518 16.046662 117.340033 3.084713 16.218380 -36.263619 0.000000 -0.000000 0.000000 -7.447150 2.586586 -40.770307 4.517263 0.016280 111.419696 4.997668 -18.946147 -26.851018 0.000000 -0.000000 0.000000 -6.835969 5.680232 43.460521 5.147844 -6.190590 -22.157840 0.885824 3.011531 0.728905 -4.019185 9.668228 -14.027874 6.149572 -7.764115 9.770566 4.378943 -20.059365 -14.679762 -6.083702 -21.379263 -8.561259 37.045992 -59.722254 -27.171231 56.987797 -1.607417 -2.511191 20.675613 24.209612 -1.793110 51.563295 21.481507 20.825679 -34.123339 44.342092 -3.214994 -61.384981 11.343384 28.398551 
-0.035049 0.334186 0.518704 -96.145575 8.947172 150.205431 15.017945 -6.025043 -65.177370 -5.967102 13.849643 115.346103 3.728260 17.973331 -35.163147 0.000000 -0.000000 0.000000 -8.502183 1.377847 -45.354001 4.899528 -1.107973 113.836293 4.970577 -17.175165 -27.981646 0.000000 -0.000000 0.000000 -4.942883 4.925133 44.950139 5.003299 -5.125937 -22.529398 1.057328 3.296690 0.673894 -4.758996 9.259823 -13.160404 6.028059 -7.636452 8.189460 5.057462 -20.545507 -15.280474 -8.487607 -22.823446 -7.037965 33.291058 -59.031687 -22.493249 51.548450 2.392810 -3.191083 20.527652 24.332662 -0.952813 49.101954 21.388067 18.848576 -31.904386 43.424273 -1.352011 -60.456484 9.757522 28.708040 
-0.052027 0.320788 0.521644 -95.128545 9.818191 149.746308 12.733188 -7.378346 -62.318613 -5.890522 12.080765 112.575315 3.891688 19.661764 -34.704265 0.000000 -0.000000 0.000000 -9.886857 0.505003 -50.360110 5.316646 -2.826304 116.818607 5.602413 -14.236380 -29.578126 0.000000 -0.000000 0.000000 -3.429425 3.932826 46.464206 4.847972 -3.860320 -22.826237 1.119961 3.365329 0.811132 -4.586076 9.132980 -14.281661 4.952114 -7.908597 9.810064 4.077592 -20.984327 -15.774088 -12.127191 -24.889639 -5.472372 37.053789 -57.655149 -24.432538 55.766953 -0.707715 -0.496615 20.814517 24.387458 -0.630381 46.488012 21.123923 16.970879 -29.254407 42.346607 0.596672 -59.410186 10.091053 27.652112 
-0.069094 0.307949 0.523377 -93.955178 10.462319 148.900392 10.670316 -8.656125 -58.664660 -5.715163 10.199547 109.308309 4.024591 21.254622 -34.463543 0.000000 -0.000000 0.000000 -11.022226 -0.201296 -55.428261 5.362460 -4.478819 120.160669 5.930327 -11.401065 -30.318070 0.000000 -0.000000 0.000000 -1.899092 2.615959 48.095495 4.463695 -2.386821 -23.126612 0.844757 3.986121 1.033811 -4.211408 9.111327 -15.405645 3.907926 -8.900150 11.678234 2.658938 -20.509638 -17.179995 -15.857872 -27.617259 -2.996272 37.911936 -57.181360 -24.144609 56.658787 -4.602694 0.416821 21.567284 23.934867 -0.241707 43.301414 20.143724 15.256805 -27.250582 41.828346 1.744648 -58.374726 10.929522 26.397942 
